# xmcd
#
# Track frame offsets:
#	150
#	18553
#	38088
#	56150
#	75610
#	94600
#	112603
#	132795
#	150013
#	168205
#	187460
#
# Disc length: 2721
#
# Revision: 4
# Processed by: cddbd v1.5.1PL0 Copyright (c) Steve Scherf et al.
# Submitted via: CDex 1.50
# Normalized: r3:TDELIM( - )
#
DISCID=7b0a9f0b
DTITLE=Various Artist - SuperSanremo 1993 - CD1
DYEAR=1993
DGENRE=Italo
TTITLE0=Enrico Ruggeri - Mistero
TTITLE1=Loredana Berté e Mia Martini - Stiamo come stiamo (rough version)
TTITLE2=Paola Turci - Stato di calma apparente
TTITLE3=Marco Conidi - Non è tardi
TTITLE4=Rosario di Bella - Non volevo
TTITLE5=Laura Pausini - La solitudine
TTITLE6=Matia Bazar - Dedicato a te
TTITLE7=Nino Buonocore - Una canzone d'amore
TTITLE8=Cristiano de André - Dietro la porta
TTITLE9=Angela Baraldi - A piedi nudi
TTITLE10=Bracco di Graci - Guardia o ladro
EXTD=YEAR: 1993
EXTT0=
EXTT1=
EXTT2=
EXTT3=
EXTT4=
EXTT5=
EXTT6=
EXTT7=
EXTT8=
EXTT9=
EXTT10=
PLAYORDER=
